<?xml version="1.0" encoding="UTF-8"?>
<svg version="1.1" xmlns="http://www.w3.org/2000/svg" width="897" height="263">
<path d="M0 0 C-1.39669668 4.44395822 -3.10943918 8.60834574 -5.0625 12.8359375 C-5.36559082 13.49494049 -5.66868164 14.15394348 -5.98095703 14.83291626 C-6.63885355 16.2628998 -7.29808118 17.69227154 -7.95849609 19.12109375 C-9.77105525 23.04363152 -11.57279138 26.97113596 -13.375 30.8984375 C-13.94263062 32.13469879 -13.94263062 32.13469879 -14.52172852 33.39593506 C-18.73119835 42.57480695 -22.86592951 51.78699256 -27 61 C-34.96667319 78.74359338 -43.02778246 96.44264826 -51.13800049 114.12103271 C-52.45567436 116.99326879 -53.77272831 119.86578907 -55.08984375 122.73828125 C-55.55970703 123.76284424 -56.02957031 124.78740723 -56.51367188 125.84301758 C-57.83161239 128.71785806 -59.14832356 131.59325887 -60.46484375 134.46875 C-62.22135669 138.30511069 -63.98594679 142.13765221 -65.75390625 145.96875 C-66.64858326 147.91659972 -67.54311976 149.86451399 -68.4375 151.8125 C-68.83888184 152.67786377 -69.24026367 153.54322754 -69.65380859 154.43481445 C-76.76644812 168.65358623 -76.76644812 168.65358623 -77.1875 183.9375 C-76.16882581 186.14558168 -76.16882581 186.14558168 -74 187 C-65.27761716 187.72686524 -57.6005774 185.19537578 -50.859375 179.640625 C-49.93898438 178.82851563 -49.93898438 178.82851563 -49 178 C-48.42765625 177.52046875 -47.8553125 177.0409375 -47.265625 176.546875 C-34.71191945 165.14488555 -26.05459278 146.37816629 -20.5625 130.625 C-15.64008158 116.53904333 -9.05510274 103.13827437 1 92 C1.63421875 91.22527344 2.2684375 90.45054687 2.921875 89.65234375 C9.8380989 81.36670752 18.83489143 73.79612317 29.90234375 72.56640625 C31.24719664 72.54322197 32.59259801 72.54236433 33.9375 72.5625 C34.99191284 72.57277222 34.99191284 72.57277222 36.06762695 72.58325195 C43.33184321 72.80828337 47.2805321 74.77498081 52.75 79.25 C56.89134525 84.31164419 59.00324432 89.81621477 61 96 C61.45890625 95.02417969 61.9178125 94.04835938 62.390625 93.04296875 C63.00987674 91.75755225 63.6296985 90.47241025 64.25 89.1875 C64.55035156 88.54490234 64.85070312 87.90230469 65.16015625 87.24023438 C67.9039242 81.60675338 69.91221178 79.75247367 75.75 77.6484375 C77.1641785 77.21574109 78.5809549 76.79145889 80 76.375 C80.7115625 76.1584375 81.423125 75.941875 82.15625 75.71875 C85.4200901 74.73229086 88.68854653 73.81046358 92 73 C89.78360818 80.32750178 86.75955279 87.10312937 83.47695923 94.01263428 C82.54024651 95.98434186 81.60955136 97.9587915 80.68041992 99.93408203 C79.72153308 101.97254962 78.76234242 104.01086587 77.80134583 106.04833984 C73.28815546 115.61821452 68.87642056 125.23488617 64.45556641 134.84765625 C62.96303205 138.08006209 61.45729042 141.30606701 59.94921875 144.53125 C58.96611782 146.64582031 57.98304388 148.76040317 57 150.875 C56.55503174 151.81907715 56.11006348 152.7631543 55.65161133 153.73583984 C48.53242856 168.74476536 48.53242856 168.74476536 48 185 C52.22843421 187.81895614 55.467728 187.49078236 60.3984375 186.53515625 C66.68825462 184.8998038 71.15237285 182.27731807 76 178 C76.57234375 177.52046875 77.1446875 177.0409375 77.734375 176.546875 C85.70473397 169.30774163 91.03264746 159.23831387 95.75 149.6796875 C96.08994492 148.99490829 96.42988983 148.31012909 96.78013611 147.604599 C100.86169766 139.3291447 104.71511692 130.94863031 108.5625 122.5625 C109.35256608 120.84531514 110.14277048 119.12819392 110.93310547 117.41113281 C116.77978816 104.69895983 122.57947008 91.96552942 128.35914612 79.22277832 C131.26534605 72.81545117 134.1782834 66.41127423 137.1015625 60.01171875 C137.44500198 59.25982773 137.78844147 58.50793671 138.14228821 57.73326111 C139.85089626 53.99421549 141.56198568 50.2563297 143.27709961 46.52026367 C146.31599922 39.89717625 149.33518335 33.26828607 152.27734375 26.6015625 C152.77395508 25.486604 153.27056641 24.37164551 153.78222656 23.22290039 C154.68710061 21.18787702 155.58181481 19.14829001 156.46386719 17.10327148 C158.61005576 12.30306749 160.24777624 8.66706436 165 6 C167.59450097 5.16165016 170.04295627 4.46495641 172.6875 3.875 C177.7977383 2.87313521 177.7977383 2.87313521 182 0 C182.99 0.33 183.98 0.66 185 1 C180.67101187 10.66861684 176.33670711 20.33484337 172 30 C171.65205383 30.77557251 171.30410767 31.55114502 170.94561768 32.35021973 C161.65359302 53.06052256 152.31378875 73.74746096 142.85931396 94.38414001 C142.53706848 95.08753006 142.214823 95.7909201 141.8828125 96.515625 C141.56233948 97.21510757 141.24186646 97.91459015 140.91168213 98.63526917 C136.69114985 107.85175455 132.50149021 117.08231429 128.31640625 126.31494141 C125.48948908 132.54785873 122.64878371 138.77298305 119.7578125 144.9765625 C119.25741455 146.05397705 118.7570166 147.1313916 118.24145508 148.24145508 C117.33275431 150.19439321 116.41908188 152.14503152 115.4987793 154.0925293 C108.34547845 168.46556176 108.34547845 168.46556176 107.8125 183.875 C108.81891735 186.14388536 108.81891735 186.14388536 111 187 C120.86523111 187.82210259 129.4432083 184.19160488 137 178 C150.90720906 165.73384161 158.46054445 145.49271377 166 129 C167.32 129 168.64 129 170 129 C169.05486105 135.22906096 166.04775753 140.60925432 163.32763672 146.21801758 C162.38865153 148.15927681 161.46532641 150.10743755 160.54296875 152.05664062 C152.14353359 169.59565669 141.147765 185.26043771 122.34375 192.25390625 C113.52683497 195.0606242 103.36795546 195.24027596 95.01171875 190.98828125 C91.55902862 188.60785514 90.22014652 186.82285878 89.12109375 182.71484375 C88.61679703 179.47394382 88.23776562 176.2704904 88 173 C87.45472656 173.65226563 86.90945313 174.30453125 86.34765625 174.9765625 C77.45988867 185.27725724 66.99779105 192.96312659 53 194 C45.91509302 194.34281808 39.05118458 194.18889329 33.125 189.9375 C30.41144909 186.18641493 29.18964658 182.43941286 28 178 C27.195625 179.03125 26.39125 180.0625 25.5625 181.125 C18.8974611 188.79989327 11.07445378 192.70453341 1 194 C-6.28387987 194.13243418 -13.03971184 193.68649046 -18.58203125 188.52734375 C-26.98685175 179.54993207 -27.19122923 168.74997408 -27 157 C-27.4125 157.75023437 -27.825 158.50046875 -28.25 159.2734375 C-36.95659291 174.70431868 -47.11144883 187.6719328 -64.6875 192.78125 C-72.80479343 194.57460553 -82.50924296 195.15251252 -90.125 191.3125 C-94.11421606 188.10378274 -95.62718846 185.46572383 -96.39453125 180.390625 C-96.65550878 177.92699707 -96.85826226 175.47307916 -97 173 C-97.556875 173.65226563 -98.11375 174.30453125 -98.6875 174.9765625 C-107.28197158 184.81955529 -115.45570119 192.16639588 -128.98046875 193.34765625 C-138.01888507 193.66801052 -145.28255188 192.96372471 -152.75 187.4375 C-159.87158272 180.7874376 -160.48717973 171.97785022 -160.921875 162.7109375 C-160.94765625 161.81632813 -160.9734375 160.92171875 -161 160 C-161.36609375 160.64324219 -161.7321875 161.28648437 -162.109375 161.94921875 C-170.75638511 176.38149038 -181.58858115 187.88824659 -198 193 C-205.99464029 194.57037577 -214.25707625 194.81291685 -222 192 C-227.0850021 188.35206371 -228.44186356 183.81450917 -230 178 C-230.38929688 178.50789062 -230.77859375 179.01578125 -231.1796875 179.5390625 C-237.33568705 187.11349513 -244.55364302 192.3058076 -254.3515625 193.8203125 C-261.44693997 194.30170979 -269.04611537 194.25277473 -275 190 C-282.17312362 183.32279603 -284.50580575 175.69089809 -285.125 166.0546875 C-285.96238699 137.68820316 -272.20532389 107.6721783 -253.21606445 87.16601562 C-246.38281186 80.083357 -238.12732791 73.68081421 -228.09765625 72.56640625 C-226.75281206 72.54272305 -225.40739474 72.54188612 -224.0625 72.5625 C-223.35810791 72.57152344 -222.65371582 72.58054687 -221.92797852 72.58984375 C-213.95689396 72.85576201 -209.6740884 75.02505234 -204.1875 80.625 C-201.02302692 84.45264284 -199.66352349 88.20501339 -198.5078125 92.99609375 C-198.18572803 94.98485271 -198.18572803 94.98485271 -197 96 C-196.54109375 95.02417969 -196.0821875 94.04835938 -195.609375 93.04296875 C-194.99012326 91.75755225 -194.3703015 90.47241025 -193.75 89.1875 C-193.44964844 88.54490234 -193.14929688 87.90230469 -192.83984375 87.24023438 C-190.0960758 81.60675338 -188.08778822 79.75247367 -182.25 77.6484375 C-180.8358215 77.21574109 -179.4190451 76.79145889 -178 76.375 C-177.2884375 76.1584375 -176.576875 75.941875 -175.84375 75.71875 C-172.5799099 74.73229086 -169.31145347 73.81046358 -166 73 C-167.91680281 79.15151687 -170.21293574 84.96700524 -172.95703125 90.79296875 C-173.52664833 92.01751518 -173.52664833 92.01751518 -174.10777283 93.26679993 C-175.33820435 95.90914776 -176.5753797 98.54827819 -177.8125 101.1875 C-178.66942726 103.02581709 -179.52586799 104.86436104 -180.38183594 106.703125 C-184.27800475 115.06654076 -188.19539064 123.41994594 -192.12109375 131.76953125 C-204.49011784 154.76645612 -204.49011784 154.76645612 -210.25 179.625 C-210.27578125 180.58664063 -210.3015625 181.54828125 -210.328125 182.5390625 C-210.21984375 183.35117188 -210.1115625 184.16328125 -210 185 C-205.77156579 187.81895614 -202.532272 187.49078236 -197.6015625 186.53515625 C-191.31174538 184.8998038 -186.84762715 182.27731807 -182 178 C-181.42765625 177.52046875 -180.8553125 177.0409375 -180.265625 176.546875 C-167.42665011 164.88578771 -159.32270605 145.94855922 -152.875 130.1875 C-147.83260151 117.88355453 -141.26338466 107.42937059 -133 97 C-132.43667969 96.26910156 -131.87335938 95.53820312 -131.29296875 94.78515625 C-120.84747149 81.95066448 -106.30314087 74.03789261 -90 72 C-80.96970272 71.73124115 -74.10537773 73.4544465 -67.25 79.375 C-64.90199113 82.11434368 -62.97637036 84.98562 -61 88 C-54.9898798 75.64921212 -49.15638959 63.23270052 -43.5625 50.6875 C-43.01749851 49.46851367 -42.47233208 48.24960107 -41.92700195 47.03076172 C-38.62133424 39.63990216 -38.62133424 39.63990216 -35.33544922 32.24023438 C-33.73838896 28.63265155 -32.11966859 25.03499174 -30.5 21.4375 C-29.77985718 19.79624146 -29.77985718 19.79624146 -29.04516602 18.12182617 C-24.71390044 8.56928808 -24.71390044 8.56928808 -20 6 C-16.5546875 4.8046875 -16.5546875 4.8046875 -12.875 3.875 C-8.49620852 2.75484404 -4.29900393 0 0 0 Z M-108.6796875 91.96484375 C-126.03060669 112.5540255 -141.05662434 142.09901577 -141.25 169.4375 C-141.270625 170.16259766 -141.29125 170.88769531 -141.3125 171.63476562 C-141.34980722 176.82513206 -140.48130649 180.41422095 -138 185 C-133.07349635 188.28433577 -127.75109243 187.63609574 -122 187 C-118.29995341 185.81088158 -115.2306103 184.14415951 -112 182 C-111.39929688 181.61199219 -110.79859375 181.22398437 -110.1796875 180.82421875 C-93.24270509 168.10178777 -83.92715467 142.21647419 -75.8125 123.5 C-75.46243896 122.69554443 -75.11237793 121.89108887 -74.75170898 121.06225586 C-71.24061525 112.68467974 -68.56660178 104.32682192 -68.625 95.1875 C-68.61726563 93.96417969 -68.60953125 92.74085938 -68.6015625 91.48046875 C-69.14300513 86.75080816 -70.91093523 83.49242209 -73.6875 79.6875 C-85.56558721 71.01970663 -100.84047771 83.29143234 -108.6796875 91.96484375 Z M-232.03125 85.9375 C-251.3968096 106.22522911 -266.1614999 142.9622601 -266.05859375 171.0625 C-265.77166449 176.92318282 -265.4563913 181.11936706 -262 186 C-258.54442577 188.59168068 -255.19618347 188.40608227 -251 188 C-242.70560746 185.98390785 -237.80737805 181.9259517 -233 175 C-231.70259235 172.6118453 -230.46752378 170.23642353 -229.27734375 167.796875 C-228.93492142 167.10311768 -228.59249908 166.40936035 -228.23970032 165.69458008 C-224.60555539 158.28289087 -221.14470104 150.79151591 -217.7253418 143.27880859 C-216.67460696 140.97169051 -215.61783718 138.66740138 -214.56054688 136.36328125 C-213.87724766 134.86735029 -213.19429212 133.37126229 -212.51171875 131.875 C-212.20231857 131.20090088 -211.8929184 130.52680176 -211.57414246 129.83227539 C-204.73485988 114.76134872 -201.27359148 100.00634671 -207 84 C-209.62051236 80.2876075 -211.04572571 79.28274794 -215.375 78 C-222.48802753 78 -226.97425974 81.26950899 -232.03125 85.9375 Z M26.09765625 85.75 C6.61568176 106.64686649 -7.35433268 141.92452088 -8.25 170.25 C-7.72766387 178.43218466 -7.72766387 178.43218466 -4 185.5 C-0.38536485 188.21097636 2.58527654 188.55285671 7 188 C15.29250428 186.00440547 20.20001351 181.91530273 25 175 C26.29740765 172.6118453 27.53247622 170.23642353 28.72265625 167.796875 C29.06507858 167.10311768 29.40750092 166.40936035 29.76029968 165.69458008 C33.39444461 158.28289087 36.85529896 150.79151591 40.2746582 143.27880859 C41.32539304 140.97169051 42.38216282 138.66740138 43.43945312 136.36328125 C44.12275234 134.86735029 44.80570788 133.37126229 45.48828125 131.875 C45.79768143 131.20090088 46.1070816 130.52680176 46.42585754 129.83227539 C52.62806396 116.16519891 56.69216181 101.79223894 52 87 C50.49077015 83.3416825 49.03428004 80.59471102 45.5 78.5625 C37.55658816 76.77523234 31.71111766 80.55835939 26.09765625 85.75 Z " fill="#FEFEFE" transform="translate(679,46)"/>
<path d="M0 0 C0 0.66 0 1.32 0 2 C-0.62342285 1.98428955 -1.2468457 1.9685791 -1.88916016 1.95239258 C-24.48422625 1.45902325 -46.12887754 3.6926341 -63.35546875 20.1171875 C-66.30325625 23.01667163 -69.16677347 25.98876971 -72 29 C-70.22496094 29.54527344 -70.22496094 29.54527344 -68.4140625 30.1015625 C-51.72570056 35.35288554 -36.57134696 42.78636816 -28 59 C-25.08211121 66.29472197 -24.91820438 73.73686074 -27.5625 81.125 C-31.77597904 90.55727938 -39.74694787 97.60941651 -49 102 C-48.04480469 102.3403125 -47.08960938 102.680625 -46.10546875 103.03125 C-29.52201323 109.15748499 -17.93971932 118.22427843 -10.4453125 134.47265625 C-8.46571859 139.30393544 -7.42789706 143.80976711 -7 149 C-6.93039062 149.77214844 -6.86078125 150.54429687 -6.7890625 151.33984375 C-5.89813311 171.93401935 -15.08795824 190.97887548 -28.375 206.1875 C-29.89961132 207.80788487 -31.44124755 209.41243028 -33 211 C-33.73605469 211.76054687 -34.47210938 212.52109375 -35.23046875 213.3046875 C-51.91916213 229.46224993 -75.10316739 236.69681294 -97.9375 237.25 C-118.77801527 236.77571786 -140.49776559 231.88799493 -156 217 C-160.03019029 212.06811343 -163.39934705 206.81322423 -166 201 C-166.51949219 201.51949219 -167.03898438 202.03898438 -167.57421875 202.57421875 C-169.71614583 204.71614583 -171.85807292 206.85807292 -174 209 C-175.21816406 210.22396484 -175.21816406 210.22396484 -176.4609375 211.47265625 C-192.1862774 227.12541766 -209.67857002 237.75866728 -230.9375 244.3125 C-231.67436035 244.54283936 -232.4112207 244.77317871 -233.17041016 245.01049805 C-246.93410859 249.00135549 -260.89131393 250.50828496 -275.17724609 250.39111328 C-277.500271 250.37499812 -279.82155739 250.39110347 -282.14453125 250.41015625 C-307.78586367 250.44638186 -334.23068743 244.11981707 -354 227 C-354.80179687 226.39671875 -355.60359375 225.7934375 -356.4296875 225.171875 C-368.48882182 214.98208977 -376.97332007 198.49684078 -379 183 C-380.09041622 169.24811992 -379.83046791 156.0295516 -375 143 C-374.649375 141.98421875 -374.29875 140.9684375 -373.9375 139.921875 C-365.18487166 116.70309704 -346.61167576 98.84717117 -324.43359375 88.3046875 C-297.92365808 77.11597658 -265.27508287 74.19201668 -238.125 84.75 C-221.78120276 91.5812298 -210.45837657 101.9601031 -203 118 C-201.65208229 121.96446385 -200.71787176 125.87842592 -200 130 C-199.773125 131.175625 -199.54625 132.35125 -199.3125 133.5625 C-197.41801651 154.40181835 -203.31240287 174.08821156 -216.09765625 190.73046875 C-225.03375129 201.14803281 -238.01483402 210.34266702 -252 212 C-263.82461204 212.83543455 -275.88536988 212.53804026 -285.5625 204.75 C-291.36270391 198.98650624 -293.34951124 193.2521007 -294.01953125 185.19921875 C-294 183 -294 183 -293 180 C-292.01 180.33 -291.02 180.66 -290 181 C-289.566875 181.9075 -289.13375 182.815 -288.6875 183.75 C-285.10107787 190.65718337 -279.82207604 192.73478943 -272.78125 195.203125 C-259.36031433 199.04844926 -245.34593192 197.90357987 -232.9921875 191.421875 C-220.39007739 183.79880022 -211.44485461 172.38744779 -207.46044922 158.05981445 C-203.60174994 142.29914865 -204.85475475 125.16830498 -213.25 111.125 C-223.14654461 96.89481059 -237.6379923 88.50537644 -254.625 85.3203125 C-282.08300188 81.2128655 -309.95431759 86.29803681 -332.59082031 102.87573242 C-351.32358059 117.30467435 -363.3314294 138.65214918 -366.40625 162.09765625 C-368.27777345 180.96176197 -364.50647014 199.65803981 -353 215 C-352.41605469 215.77859375 -351.83210938 216.5571875 -351.23046875 217.359375 C-337.57302315 234.03583489 -315.50650852 242.09660999 -294.67993164 244.43383789 C-261.14150239 247.73638979 -229.15724229 240.30494373 -202.74584961 218.82348633 C-186.64339123 205.36890081 -175.41666288 188.02457746 -165 170 C-164.39381836 168.96818604 -164.39381836 168.96818604 -163.77539062 167.91552734 C-154.94066913 152.81089304 -147.90203708 136.93458626 -140.78076172 120.97851562 C-136.97983954 112.47128766 -133.0737735 104.01152127 -129.17285156 95.54980469 C-128.07523275 93.16355764 -126.986263 90.77353502 -125.8984375 88.3828125 C-116.60456776 68.10236724 -105.58748976 48.94826709 -91 32 C-109.55274216 25.81575261 -135.67189136 31.86291008 -153 40 C-164.83840034 46.22612166 -174.34233689 54.93779938 -178.640625 67.9375 C-179.90380439 75.18705126 -180.11471267 82.89495104 -176.2734375 89.3515625 C-172.69483783 93.98398293 -168.09499787 97.40429129 -162.30078125 98.51953125 C-155.61010362 99.17548004 -150.03346856 99.23928025 -144 96 C-140.62937702 93.1313847 -137.31784729 90.21384334 -136.6640625 85.66015625 C-136.46554395 80.12383693 -136.46554395 80.12383693 -139 75.375 C-139.99 74.694375 -139.99 74.694375 -141 74 C-137.20135193 74.26502196 -135.25944948 74.80397151 -132.1875 77.125 C-129.48532125 80.67643493 -128.92437722 82.53825607 -129 87 C-130.60405131 93.13104055 -134.18153701 96.62895874 -139.53515625 99.8046875 C-149.38295875 104.58032548 -160.86245484 103.36694942 -171.0390625 99.9921875 C-178.05928459 96.78960884 -182.81038379 92.22869564 -185.875 85.125 C-188.65310933 76.45796429 -186.75126865 69.08867302 -183 61 C-175.15221655 46.0401628 -160.10995872 37.14107846 -144.4453125 32.13671875 C-134.20774462 29.08016285 -124.43151002 26.94978282 -113.75 26.4375 C-112.44023193 26.36402344 -112.44023193 26.36402344 -111.10400391 26.2890625 C-106.71984509 26.06752046 -102.42207179 25.98051758 -98.0390625 26.25390625 C-89.80537548 26.93079142 -89.80537548 26.93079142 -82.18359375 24.31640625 C-80.57861961 22.79075538 -79.02644892 21.20792139 -77.52734375 19.578125 C-58.19211678 -0.14559958 -25.81475769 -3.27806447 0 0 Z M-77 34 C-95.34439394 54.48398864 -105.5564074 84.0184488 -116.25366211 108.98754883 C-123.76299134 126.51007377 -131.8326422 143.77600189 -140 161 C-138.88882813 160.9278125 -137.77765625 160.855625 -136.6328125 160.78125 C-128.74178265 160.28368141 -120.91111017 159.87442682 -113 160 C-113 160.66 -113 161.32 -113 162 C-113.89460938 161.96519531 -114.78921875 161.93039063 -115.7109375 161.89453125 C-127.47392142 161.63118086 -136.12977153 162.91183344 -145 171 C-151.76973866 178.13567048 -152.56496784 184.69283076 -152.34765625 194.2734375 C-151.25719654 205.96218543 -144.24691162 214.72848916 -135.52734375 222.11328125 C-121.29967003 232.73455854 -103.43155711 234.69025903 -86.21044922 232.32885742 C-67.77461493 229.33186626 -52.39566997 218.53471095 -41 204 C-28.60629064 186.34068871 -23.28535635 166.29824723 -26.30029297 144.86523438 C-28.85509241 132.53710664 -36.61529447 120.0013317 -47.07421875 112.91796875 C-56.85525954 107.12485533 -63.48663256 106.36667524 -74.625 108 C-84.38065039 109.31836217 -94.61373761 110.575719 -104 107 C-103.75 105.125 -103.75 105.125 -103 103 C-97.83391373 99.36460596 -91.10807128 99.90841509 -85.07421875 100.11328125 C-83.53974497 100.14541775 -82.00523728 100.1759668 -80.47070312 100.20507812 C-78.08051719 100.25430729 -75.6921649 100.31233331 -73.30297852 100.39770508 C-61.20053772 100.93579519 -61.20053772 100.93579519 -50.62158203 95.57617188 C-43.51597192 88.66954452 -39.84716097 82.14680233 -39.375 72.1875 C-39.71473187 61.67846073 -44.6772485 53.46829825 -51.80078125 45.96484375 C-58.30954966 40.14972739 -68.10344498 34 -77 34 Z M-98 105 C-96.18818572 107.22761632 -96.18818572 107.22761632 -93.63671875 107.265625 C-85.93381623 107.22481492 -78.57739342 106.36881946 -71 105 C-71 104.67 -71 104.34 -71 104 C-75.91550044 103.20615303 -80.63100872 102.83792765 -85.625 102.8125 C-87.53152344 102.79123047 -87.53152344 102.79123047 -89.4765625 102.76953125 C-92.8049746 102.98724335 -95.02397107 103.55759517 -98 105 Z " fill="#FEFEFE" transform="translate(387,7)"/>
</svg>
