<?xml version="1.0" encoding="UTF-8"?>
<svg version="1.1" xmlns="http://www.w3.org/2000/svg" width="920" height="271">
<path d="M0 0 C0.66 0.33 1.32 0.66 2 1 C1.70343506 1.61294922 1.40687012 2.22589844 1.10131836 2.85742188 C-0.28965743 5.73682522 -1.6760719 8.61840435 -3.0625 11.5 C-3.52849609 12.46292969 -3.99449219 13.42585938 -4.47460938 14.41796875 C-7.5420122 20.80317463 -10.44056987 27.24404756 -13.25918579 33.74127197 C-16.35759159 40.86423005 -19.61453729 47.91127167 -22.87774658 54.95986938 C-29.0784696 68.35965219 -35.16279364 81.8050117 -41.125 95.3125 C-46.33234927 107.10193488 -51.64968697 118.83243839 -57.125 130.5 C-57.43133362 131.15368561 -57.73766724 131.80737122 -58.05328369 132.48086548 C-61.02028818 138.8041794 -64.03685298 145.08804203 -67.24609375 151.29296875 C-69.79378941 156.36048409 -71.56957507 161.31792526 -72.9375 166.8125 C-73.26717773 168.00262695 -73.26717773 168.00262695 -73.60351562 169.21679688 C-74.86421531 174.09445605 -75.3336207 178.01647003 -74 183 C-70.43211425 185.3785905 -68.11402211 185.60259637 -64 185 C-57.18914724 183.17125143 -52.16230144 180.76520133 -47 176 C-46.34 176 -45.68 176 -45 176 C-45 175.34 -45 174.68 -45 174 C-44.34 174 -43.68 174 -43 174 C-42.73960937 173.43023437 -42.47921875 172.86046875 -42.2109375 172.2734375 C-40.89886073 169.81011918 -39.35175992 167.81805796 -37.625 165.625 C-28.84411271 153.63940932 -21.7072572 140.27447913 -17.15136719 126.13574219 C-13.04672573 113.66647476 -6.18702982 102.20830897 2 92 C2.53882813 91.29746094 3.07765625 90.59492188 3.6328125 89.87109375 C9.7481419 82.32294562 19.06884128 73.56895617 29 72 C37.17322508 71.29712067 45.30390815 70.6335149 52 76 C57.91423682 81.0794522 60.34156189 87.83633271 63 95 C63.50789063 93.95199219 64.01578125 92.90398437 64.5390625 91.82421875 C65.23344233 90.4448426 65.92880709 89.06596195 66.625 87.6875 C66.95628906 86.99720703 67.28757812 86.30691406 67.62890625 85.59570312 C70.73819783 79.52378467 74.07617815 77.96386189 80.54296875 75.83203125 C81.74566406 75.49558594 82.94835937 75.15914063 84.1875 74.8125 C85.39792969 74.46832031 86.60835937 74.12414062 87.85546875 73.76953125 C91 73 91 73 94 73 C87.05243878 88.63855296 80.01291028 104.23363942 72.85491943 119.77706909 C72.08780502 121.44310749 71.32154348 123.10953889 70.55621338 124.77639771 C66.41670064 133.78751146 62.223917 142.75335371 57.66044617 151.55940247 C53.21199387 160.25676493 49.18593904 170.14523077 49 180 C49.65682309 182.40686815 49.65682309 182.40686815 51 184 C55.91067291 186.45533645 61.39329804 185.10403737 66.375 183.5 C78.43608241 178.67556704 85.24128113 169.57561036 92 159 C92.65484375 157.97648438 93.3096875 156.95296875 93.984375 155.8984375 C98.66441498 148.10481721 102.4838268 139.92414729 106.3125 131.6875 C106.8286084 130.57793945 107.3447168 129.46837891 107.87646484 128.32519531 C110.93408194 121.64008278 110.93408194 121.64008278 113.39453125 114.72265625 C115.43578393 108.25515446 118.46924665 102.1652752 121.31958008 96.02416992 C123.13656638 92.10901206 124.93810232 88.18673972 126.7421875 84.265625 C127.2883371 83.08033203 127.2883371 83.08033203 127.84552002 81.87109375 C131.11473585 74.76989663 134.31514638 67.6394558 137.5 60.5 C138.54129226 58.17821746 139.58296634 55.85660613 140.625 53.53515625 C142.43693955 49.49704157 144.24245763 45.45635974 146.03515625 41.40966797 C147.8243142 37.37189214 149.62692483 33.34033593 151.43725586 29.31201172 C152.13947792 27.74302211 152.83699937 26.17191927 153.52954102 24.59863281 C154.49700745 22.40247694 155.48091548 20.21439831 156.46875 18.02734375 C156.75161865 17.37454941 157.0344873 16.72175507 157.32592773 16.04917908 C159.52463133 11.2495322 162.11459681 8.29943931 166.95703125 6.11865234 C167.56933594 5.94285645 168.18164062 5.76706055 168.8125 5.5859375 C169.49570312 5.38226563 170.17890625 5.17859375 170.8828125 4.96875 C171.58148437 4.7728125 172.28015625 4.576875 173 4.375 C177.41314584 3.08851099 181.76340194 1.80386402 186 0 C184.02224869 5.25849171 181.87615014 10.35193201 179.30078125 15.34765625 C175.89073803 22.11277546 172.83653918 29.00964145 169.79605103 35.94577026 C163.47311955 50.35712579 156.95705358 64.67184986 150.3125 78.9375 C144.73057157 90.92284559 139.19302952 102.92275575 133.8125 115 C130.44868803 122.54621392 127.07823374 130.08560404 123.5625 137.5625 C123.24796875 138.23434326 122.9334375 138.90618652 122.609375 139.59838867 C121.26607916 142.44022655 119.87385676 145.22946056 118.359375 147.984375 C114.92843684 154.25710033 112.83472704 160.47941439 111.0625 167.375 C110.83860596 168.23198486 110.61471191 169.08896973 110.3840332 169.97192383 C109.27811158 174.56828376 108.5021771 178.3703656 110 183 C113.56993898 185.37995932 115.88410461 185.59758917 120 185 C135.00132093 181.0652273 143.56699609 171.50311646 151.30126953 158.57592773 C153.70926633 154.43569408 155.93178312 150.21893483 158.1015625 145.94921875 C158.63370361 144.90515869 159.16584473 143.86109863 159.71411133 142.78540039 C160.76931371 140.69901046 161.81113554 138.60579247 162.83862305 136.50561523 C163.32113525 135.54727783 163.80364746 134.58894043 164.30078125 133.6015625 C164.72528564 132.73869629 165.14979004 131.87583008 165.5871582 130.98681641 C167 129 167 129 169.16870117 128.21240234 C169.77302979 128.14230957 170.3773584 128.0722168 171 128 C168.46098824 136.88654117 164.29483123 144.85852773 160 153 C159.66806641 153.63196289 159.33613281 154.26392578 158.99414062 154.91503906 C150.98717288 169.99402922 140.75689737 184.22962873 124 190 C119.69021403 191.22388459 115.57875357 191.22121969 111.125 191.25 C110.33480469 191.270625 109.54460937 191.29125 108.73046875 191.3125 C102.61809669 191.35318134 98.4918458 190.1457561 93.75 186.0625 C91.06065571 181.35614749 90.64585105 176.32827115 90 171 C89.47792969 171.64066406 88.95585938 172.28132812 88.41796875 172.94140625 C79.47579382 183.44963633 69.40315604 190.07559364 55.625 191.8125 C48.79492312 192.26272947 41.26482677 192.05116651 35.5 187.9375 C32.34394745 184.22913826 31.16057563 180.672844 30 176 C29.3709375 176.67546875 28.741875 177.3509375 28.09375 178.046875 C19.0752935 187.44562786 12.16996046 191.20758361 -1 192 C-8.29772263 191.69207921 -13.91113557 189.27734089 -19 184 C-25.0659139 175.9121148 -25.32388144 164.71644306 -25 155 C-25.54527344 155.96679688 -26.09054687 156.93359375 -26.65234375 157.9296875 C-34.99142954 172.4441438 -44.62943988 184.87080516 -61.140625 190.28125 C-69.47143642 192.37533374 -79.10778892 193.48464096 -86.81640625 188.92578125 C-90.99417386 185.73457081 -92.60063396 182.78616542 -93.33203125 177.68359375 C-93.59333489 175.45728675 -93.81506618 173.23380591 -94 171 C-94.70125 171.80824219 -95.4025 172.61648437 -96.125 173.44921875 C-104.81248016 183.30548718 -112.78088039 190.15131316 -126.43359375 191.28515625 C-134.83344526 191.49311813 -142.21362827 191.19738057 -148.8125 185.625 C-149.534375 184.75875 -150.25625 183.8925 -151 183 C-151.721875 182.195625 -152.44375 181.39125 -153.1875 180.5625 C-156.77241921 175.49416595 -157.34284428 170.19134798 -157.625 164.125 C-157.66367187 163.43664062 -157.70234375 162.74828125 -157.7421875 162.0390625 C-157.83548166 160.35976754 -157.91878238 158.67992233 -158 157 C-158.32871094 157.59425781 -158.65742187 158.18851563 -158.99609375 158.80078125 C-166.60761162 172.06421212 -176.82482909 185.29471162 -192 190 C-200.91562586 192.2411532 -209.68545851 192.93256054 -218.4375 189.75 C-223.8379047 186.06191874 -225.55730877 182.13143771 -227 176 C-227.6290625 176.67546875 -228.258125 177.3509375 -228.90625 178.046875 C-236.40177613 185.85847753 -243.05055332 190.81971139 -254 192 C-262.32384488 192.11650794 -268.76832909 190.08804109 -274.8125 184.3125 C-281.72218999 173.84925515 -282.06400959 160.72924424 -279.84765625 148.6640625 C-275.36885543 129.30408475 -268.48246929 112.27284956 -257 96 C-256.01968227 94.41737909 -255.04043558 92.834094 -254.0625 91.25 C-248.03961795 82.24016019 -238.47402326 74.89463915 -228 72 C-219.89602183 71.24080379 -211.60643322 70.64833556 -205 76 C-199.70592734 80.66050209 -197.15727046 85.15815095 -195.5078125 91.99609375 C-195.18572803 93.98485271 -195.18572803 93.98485271 -194 95 C-193.53851562 93.96359375 -193.07703125 92.9271875 -192.6015625 91.859375 C-186.76896215 79.46471932 -186.76896215 79.46471932 -181.125 77.25 C-179.4289109 76.78600036 -177.71911455 76.36967426 -176 76 C-174.18475718 75.44641531 -172.37214868 74.88410664 -170.5625 74.3125 C-169.35787109 73.96638672 -169.35787109 73.96638672 -168.12890625 73.61328125 C-166.40672458 73.11716653 -164.70024574 72.56674858 -163 72 C-164.52642097 76.94315855 -166.52785046 81.52744602 -168.7109375 86.203125 C-169.07532425 86.99032425 -169.439711 87.7775235 -169.81513977 88.58857727 C-170.99874088 91.14379721 -172.18678741 93.69692164 -173.375 96.25 C-174.1940595 98.01540761 -175.01282397 99.78095212 -175.83129883 101.54663086 C-177.06097552 104.19899921 -178.29098968 106.85120708 -179.52235413 109.50279236 C-181.89758878 114.61768576 -184.26298213 119.73688389 -186.61328125 124.86328125 C-194.83260951 142.77703963 -194.83260951 142.77703963 -198.9375 150.75 C-206.9307397 166.23433174 -206.9307397 166.23433174 -207.125 183.0625 C-204.74888838 185.22895471 -204.10170224 185.3846246 -201 185.5625 C-190.0069374 184.88435653 -181.10049868 179.68794185 -173.86328125 171.6171875 C-163.00259434 157.92921226 -155.29358108 142.15528688 -148.58276367 126.125 C-139.49015895 104.72632517 -123.7937122 84.42497257 -102.25 74.6875 C-93.3798661 71.41955593 -81.96299538 69.01252568 -73 73 C-66.88402184 76.46572096 -62.87398191 81.21837549 -59 87 C-55.06343212 79.35470419 -51.33651678 71.6436784 -47.828125 63.79296875 C-47.44143143 62.93094345 -47.05473785 62.06891815 -46.65632629 61.18077087 C-44.25455964 55.82135854 -41.86746629 50.45548172 -39.48521423 45.08737183 C-37.94359214 41.61543472 -36.3973375 38.14557101 -34.8503418 34.67602539 C-34.06365954 32.90793101 -33.27955019 31.13868999 -32.49780273 29.3684082 C-31.34261855 26.75421903 -30.17810816 24.14436152 -29.01171875 21.53515625 C-28.66686935 20.74875259 -28.32201996 19.96234894 -27.96672058 19.15211487 C-23.51618841 9.2580942 -23.51618841 9.2580942 -18.484375 6.7421875 C-17.58203125 6.45601562 -16.6796875 6.16984375 -15.75 5.875 C-14.78707031 5.55660156 -13.82414062 5.23820312 -12.83203125 4.91015625 C-11.89746094 4.60980469 -10.96289062 4.30945312 -10 4 C-4.91910445 2.19217061 -4.91910445 2.19217061 0 0 Z M-107.0625 92.625 C-123.36879522 112.57402464 -138.20140486 141.95138216 -138.4375 168.0625 C-138.44765137 168.86010742 -138.45780273 169.65771484 -138.46826172 170.47949219 C-138.39505258 175.3484154 -137.72637281 178.81147409 -135 183 C-130.43169577 185.83234862 -126.82378162 186.55497536 -121.51953125 185.6875 C-107.44060189 181.84580765 -99.17092235 172.10822489 -92.07519531 159.88574219 C-87.57742358 151.99727969 -83.22622721 144.03721059 -79 136 C-78.37714111 134.81784912 -78.37714111 134.81784912 -77.74169922 133.61181641 C-70.0510668 118.8075935 -62.99917709 100.14576673 -67.765625 83.29296875 C-69.49178359 79.49130995 -71.18434255 77.54079882 -75 76 C-88.39694107 74.35955824 -98.8746395 83.16402704 -107.0625 92.625 Z M-232 88 C-242.15044168 101.30719416 -253.04777757 119.03719456 -255.9375 135.6875 C-256.59200674 139.17648473 -257.41689958 142.49507356 -258.5 145.875 C-262.13618964 157.66954405 -264.72029664 171.48511715 -259 183 C-256.5612135 185.98073905 -255.17744889 185.97894674 -251.3125 186.4375 C-243.55783352 186.09156692 -237.99867959 182.49085253 -232.72827148 177.0534668 C-229.80723116 173.58279719 -227.82648463 169.73199054 -225.8125 165.6875 C-225.3788916 164.84082764 -224.9452832 163.99415527 -224.49853516 163.12182617 C-222.08547213 158.35490231 -219.89601928 153.581774 -218.046875 148.56640625 C-216.60241449 145.0253221 -214.86041068 141.65592374 -213.125 138.25 C-204.8486215 121.88586745 -197.55155829 105.68560194 -202.3046875 87.0078125 C-203.65239479 83.11611842 -205.54516712 80.06687745 -208.875 77.625 C-218.51484703 74.78975087 -226.18213604 80.87730647 -232 88 Z M25 88 C9.90659332 107.93565243 -0.56272318 132.39328308 -5 157 C-5.18175781 157.99257812 -5.36351562 158.98515625 -5.55078125 160.0078125 C-6.74752607 167.97917363 -6.62797454 175.66518191 -3 183 C-1.13657782 185.36511277 0.00864681 185.84441539 2.94140625 186.3046875 C10.45570673 186.74901135 16.82558289 184.20243548 22.5 179.3125 C30.2816282 170.91700786 34.69280348 158.75710496 39.39624023 148.49316406 C40.75540443 145.53275589 42.12919552 142.57974389 43.51014709 139.62945557 C44.64925339 137.18705448 45.77420195 134.73827665 46.89697266 132.28833008 C47.46759793 131.05023328 48.04348992 129.81455085 48.62451172 128.58129883 C55.03649249 114.95090049 59.03723376 99.80041156 54 85 C52.3070567 81.89627062 50.97425565 79.71445414 48.125 77.625 C38.34768416 74.74931887 31.021944 80.98059575 25 88 Z " fill="#FEFEFE" transform="translate(715,57)"/>
<path d="M0 0 C0.33 0.66 0.66 1.32 1 2 C0.36199463 1.97905273 -0.27601074 1.95810547 -0.93334961 1.93652344 C-26.23395058 1.218647 -45.02610266 4.92276286 -64.51171875 21.60546875 C-66.92540777 23.92821815 -68.97782009 26.33375343 -71 29 C-70.45174561 29.17539307 -69.90349121 29.35078613 -69.33862305 29.53149414 C-58.81077144 32.94136487 -48.87376873 36.17165803 -40 43 C-39.26652344 43.53109375 -38.53304688 44.0621875 -37.77734375 44.609375 C-30.82221896 50.06947296 -25.83206441 58.11159791 -24.76171875 66.97265625 C-24.43940294 76.04839091 -27.26413939 83.40394573 -33.125 90.3125 C-37.53075617 94.9088546 -42.35776104 98.10231569 -48 101 C-46.40671875 101.65355469 -46.40671875 101.65355469 -44.78125 102.3203125 C-30.0226556 108.4890733 -30.0226556 108.4890733 -24 114 C-23.25363281 114.64453125 -22.50726563 115.2890625 -21.73828125 115.953125 C-11.03786672 125.78689439 -6.86471207 138.07430558 -6.03515625 152.3125 C-5.83725041 173.07062316 -15.4927959 190.91242833 -29 206 C-29.82564453 206.94939453 -29.82564453 206.94939453 -30.66796875 207.91796875 C-47.13307472 225.68402137 -71.68358402 233.96487726 -95.32421875 234.95703125 C-114.41987781 235.26367687 -135.02873415 231.37509707 -149.8125 218.5625 C-150.534375 217.716875 -151.25625 216.87125 -152 216 C-152.55042969 215.42765625 -153.10085938 214.8553125 -153.66796875 214.265625 C-158.2979774 209.32958167 -161.25777949 204.1668369 -164 198 C-164.56847656 198.64066406 -165.13695312 199.28132812 -165.72265625 199.94140625 C-166.49480469 200.80636719 -167.26695312 201.67132813 -168.0625 202.5625 C-168.81660156 203.40941406 -169.57070313 204.25632813 -170.34765625 205.12890625 C-194.12925787 230.87187707 -226.8374943 246.78539437 -262.11572266 248.20654297 C-266.49405915 248.32671395 -270.87034337 248.33458042 -275.25 248.3125 C-276.02068817 248.31034485 -276.79137634 248.3081897 -277.5854187 248.30596924 C-288.92945481 248.25507999 -299.99685932 247.99938662 -311 245 C-311.73911621 244.80132324 -312.47823242 244.60264648 -313.23974609 244.39794922 C-328.31382901 240.18880873 -341.22867568 233.45655162 -353 223 C-353.70769531 222.37480469 -354.41539062 221.74960938 -355.14453125 221.10546875 C-367.25833847 209.7328505 -375.64568038 192.13895732 -376.43359375 175.45703125 C-376.45680832 173.5756636 -376.4576125 171.69390337 -376.4375 169.8125 C-376.43065186 168.81436279 -376.42380371 167.81622559 -376.41674805 166.7878418 C-375.93467385 144.32173978 -366.42862844 125.0250292 -351 109 C-350.24332031 108.20335938 -349.48664063 107.40671875 -348.70703125 106.5859375 C-329.67709834 86.99919072 -304.091513 78.36130079 -277.1027832 77.71899414 C-261.28564606 77.5443762 -246.47892429 79.28791589 -232 86 C-230.58654297 86.64582031 -230.58654297 86.64582031 -229.14453125 87.3046875 C-215.76705848 93.98398984 -206.13451071 104.49545825 -200.65625 118.4140625 C-194.16915757 138.94107641 -196.97612546 159.34965981 -206.65625 178.23046875 C-209.3933445 182.9868413 -209.3933445 182.9868413 -211 185 C-211.66 185 -212.32 185 -213 185 C-213.24234375 185.56203125 -213.4846875 186.1240625 -213.734375 186.703125 C-219.48973183 197.14803184 -231.23454495 204.065725 -242.0703125 208.16015625 C-254.14418267 211.62133236 -267.08077471 211.27614757 -278.46875 205.81640625 C-285.12183636 201.90217378 -289.57799307 196.22296885 -291.62109375 188.71875 C-292.13349633 185.32803663 -292.2129451 182.23452026 -291 179 C-290.34 179 -289.68 179 -289 179 C-288.7525 179.94875 -288.505 180.8975 -288.25 181.875 C-287.34456438 185.03428642 -287.34456438 185.03428642 -285.1875 186.125 C-284.465625 186.41375 -283.74375 186.7025 -283 187 C-281.9171875 187.9590625 -281.9171875 187.9590625 -280.8125 188.9375 C-271.41281138 195.83060499 -258.19408956 195.96079695 -247 195 C-233.56539661 192.51930571 -221.05368958 185.62972769 -213.1640625 174.3828125 C-203.88271138 159.61880672 -201.16829705 142.17620025 -204.6953125 125.05078125 C-206.66767302 118.04807268 -209.83952443 111.94504504 -214 106 C-214.40476563 105.38769531 -214.80953125 104.77539062 -215.2265625 104.14453125 C-224.37133926 91.88604215 -241.01174618 86.29900069 -255.375 83.6875 C-281.08999549 80.42608594 -308.80947871 85.24988335 -329.81640625 101.12890625 C-332.32853323 103.32652594 -334.67541981 105.60533196 -337 108 C-337.84175781 108.84433594 -338.68351562 109.68867187 -339.55078125 110.55859375 C-355.50877603 127.24305264 -364.51371529 149.39847528 -364.15234375 172.56640625 C-362.86638671 193.10874564 -354.72208488 209.91266426 -340 224 C-319.25291806 241.81212888 -290.50799142 244.74601874 -264.27832031 242.79785156 C-232.62842594 239.73793839 -205.33980491 225.34200519 -184.75 201 C-173.72631307 187.30815954 -164.4132297 172.8302657 -156.1875 157.3125 C-155.74365967 156.48250488 -155.29981934 155.65250977 -154.8425293 154.79736328 C-152.5135503 150.32316843 -150.50618639 145.84204804 -148.73828125 141.1171875 C-145.25498634 131.82908206 -141.1017155 122.84043633 -137 113.8125 C-136.58059143 112.88746674 -136.16118286 111.96243347 -135.72906494 111.0093689 C-112.02380313 58.78732542 -112.02380313 58.78732542 -98.0859375 42.453125 C-95.2253412 39.08897804 -92.60417062 35.56413939 -90 32 C-101.00677832 26.49661084 -124.61933857 30.55804386 -136 34 C-137.18078125 34.3403125 -138.3615625 34.680625 -139.578125 35.03125 C-148.05694474 37.74740871 -154.81995684 41.81097456 -162 47 C-163.02609375 47.63035156 -164.0521875 48.26070312 -165.109375 48.91015625 C-168.21074344 51.15236181 -169.76637247 53.12658244 -171.75 56.375 C-172.32234375 57.29023437 -172.8946875 58.20546875 -173.484375 59.1484375 C-177.79429265 67.25730318 -178.60858953 76.64270006 -176.34765625 85.578125 C-174.16585287 90.48484162 -170.76541053 93.60273645 -166 96 C-159.50631287 98.4855596 -152.93936903 98.99639628 -146.3125 96.75 C-140.64146477 93.75398139 -137.45227556 91.30008656 -135.44140625 85.1640625 C-134.67449257 81.40414941 -135.03562942 78.72889958 -136 75 C-137.92064793 73.4100567 -137.92064793 73.4100567 -140 73 C-135.76345733 73.1970485 -134.27721051 73.72894972 -131.1875 76.75 C-128 81.48571429 -128 81.48571429 -128 85 C-130.16179658 91.72558935 -133.59861667 95.91617638 -139.75 99.3125 C-148.28338679 102.80862001 -159.45397173 102.22542089 -168.125 99.375 C-175.40646409 96.21491088 -179.94305132 92.14069757 -183.2734375 84.9296875 C-186.25003559 77.02409901 -185.14109602 69.67693243 -182 62 C-173.22466937 46.08840912 -156.02736094 35.94726663 -138.99609375 30.71484375 C-129.86503433 28.11219035 -121.11803693 26.85439556 -111.66015625 26.96484375 C-110.08658201 26.96113212 -108.51301171 26.95520475 -106.93945312 26.94726562 C-104.49869742 26.9367187 -102.06087461 26.93752551 -99.62036133 26.97583008 C-88.33553429 27.39938534 -88.33553429 27.39938534 -78.75 22.1953125 C-77.48403861 20.81130773 -76.23194638 19.41436755 -75 18 C-53.75885041 2.64020703 -26.10675534 -5.28113753 0 0 Z M-76 34 C-77.19206706 35.60077577 -78.37832043 37.20588066 -79.5625 38.8125 C-80.55443359 40.15248047 -80.55443359 40.15248047 -81.56640625 41.51953125 C-87.36882309 49.66776619 -92.36358849 58.17320658 -96.8125 67.125 C-97.35165039 68.20539551 -97.89080078 69.28579102 -98.44628906 70.39892578 C-105.70986617 85.19231632 -112.16548269 100.35806764 -118.71697998 115.47592163 C-121.35621819 121.55264196 -124.04362267 127.60659417 -126.76171875 133.6484375 C-127.11893005 134.44289276 -127.47614136 135.23734802 -127.84417725 136.05587769 C-131.46706996 144.08287503 -135.22706305 152.04253297 -139 160 C-130.42 160 -121.84 160 -113 160 C-115.083125 160.0825 -117.16625 160.165 -119.3125 160.25 C-132.12337424 161.20661422 -139.91167668 165.28723326 -148.4375 174.6875 C-152.50134919 183.30286029 -151.52903039 194.02194211 -149 203 C-146.31764442 208.46974315 -142.55529672 212.97438895 -138 217 C-137.37609375 217.55429688 -136.7521875 218.10859375 -136.109375 218.6796875 C-122.4079431 230.16326172 -106.21892425 232.0900474 -89 231 C-73.82120309 229.38625422 -60.18711051 222.20615119 -49 212 C-48.3915625 211.48308594 -47.783125 210.96617187 -47.15625 210.43359375 C-32.93292816 197.5356269 -25.05874056 177.14049684 -24.00390625 158.35546875 C-23.98722837 144.02917171 -28.2255145 131.31908629 -37 120 C-37.45375 119.39671875 -37.9075 118.7934375 -38.375 118.171875 C-43.79988001 111.89935749 -52.08818172 107.32976467 -60 105 C-63.34710318 104.90058109 -65.98860195 105.40408591 -69.234375 106.19921875 C-74.27322281 107.27075796 -79.23792607 107.51388552 -84.375 107.75 C-85.3148877 107.80599365 -86.25477539 107.8619873 -87.22314453 107.91967773 C-92.6311554 108.17093274 -96.89352389 107.82876555 -102 106 C-102 104.68 -102 103.36 -102 102 C-94.99916379 98.81780172 -87.79375573 98.83861188 -80.25 98.875 C-79.36401123 98.87330811 -78.47802246 98.87161621 -77.56518555 98.86987305 C-72.90043788 98.88569735 -68.43482073 99.12406925 -63.8125 99.8125 C-58.08374424 100.41222912 -54.4230875 98.54979051 -50 95 C-42.29298009 87.88686604 -39.00217893 81.79313894 -38.375 71.375 C-38.62689817 61.97416039 -42.075675 54.20111908 -48.4921875 47.33203125 C-56.14181966 40.71343646 -65.64169752 34.47083193 -76 34 Z M-96 104 C-95.67 104.66 -95.34 105.32 -95 106 C-86.73252149 106.23658921 -79.07953776 105.81344335 -71 104 C-71 103.67 -71 103.34 -71 103 C-75.58225735 102.1133403 -79.95986245 101.83587243 -84.625 101.8125 C-85.91664063 101.79832031 -87.20828125 101.78414063 -88.5390625 101.76953125 C-91.70287989 101.98021435 -93.37665467 102.31546607 -96 104 Z " fill="#FDFDFD" transform="translate(426,18)"/>
</svg>
